<svg width="96" height="96" viewBox="0 0 96 96" fill="none" xmlns="http://www.w3.org/2000/svg">
<circle cx="48" cy="48" r="47.75" fill="#FEFEFE" stroke="#1C1C1C" stroke-width="0.5"/>
<path d="M47.94 62.5319H59.2938C60.3974 62.5319 61.4558 62.1191 62.2362 61.3843C63.0165 60.6496 63.4549 59.653 63.4549 58.6138V49.6582C63.4549 48.6191 63.0165 47.6225 62.2362 46.8877C61.4558 46.1529 60.3974 45.7401 59.2938 45.7401H43.8383C43.2677 45.7401 42.7208 45.8499 42.2214 46.0469C40.3391 45.108 38.2408 44.6183 36.1106 44.6207C34.9047 44.6196 33.7044 44.7756 32.5439 45.0842V28.9484C32.5439 27.7608 33.045 26.6219 33.9368 25.7821C34.8286 24.9423 36.0382 24.4706 37.2995 24.4706H51.5661V37.904C51.5661 39.0916 52.0671 40.2305 52.9589 41.0703C53.8508 41.91 55.0604 42.3818 56.3216 42.3818H70.5882V64.7708C70.5882 65.9584 70.0872 67.0973 69.1954 67.9371C68.3035 68.7769 67.0939 69.2486 65.8327 69.2486H53.901C53.7736 68.4113 53.3605 67.6358 52.724 67.0388L47.94 62.5319ZM59.8883 55.8152V58.6138C59.8883 58.7623 59.8256 58.9047 59.7142 59.0096C59.6027 59.1146 59.4515 59.1736 59.2938 59.1736H50.3772V55.8152H59.8883ZM50.3772 52.4569V49.0985H59.2938C59.4515 49.0985 59.6027 49.1575 59.7142 49.2624C59.8256 49.3674 59.8883 49.5098 59.8883 49.6582V52.4569H50.3772ZM55.1327 25.59V37.904C55.1327 38.2009 55.258 38.4856 55.4809 38.6956C55.7039 38.9055 56.0063 39.0234 56.3216 39.0234H69.3993L55.1327 25.59ZM44.8322 62.7715C46.3869 60.7125 47.0633 58.1787 46.7275 55.6723C46.3916 53.1659 45.068 50.8697 43.0189 49.2389C40.9698 47.608 38.3449 46.7616 35.6642 46.8672C32.9835 46.9729 30.4429 48.023 28.5457 49.8093C26.6485 51.5957 25.5333 53.988 25.4211 56.5121C25.3089 59.0362 26.2079 61.5079 27.9398 63.4373C29.6718 65.3667 32.1104 66.613 34.7723 66.9293C37.4342 67.2455 40.1251 66.6086 42.3118 65.1447L48.5225 70.995C48.6858 71.1599 48.8827 71.2923 49.1014 71.384C49.3202 71.4758 49.5563 71.5252 49.7958 71.5291C50.0352 71.5331 50.2731 71.4916 50.4951 71.4072C50.7172 71.3227 50.9189 71.197 51.0882 71.0376C51.2576 70.8781 51.3911 70.6882 51.4808 70.4791C51.5705 70.27 51.6145 70.0461 51.6103 69.8206C51.6061 69.5951 51.5536 69.3728 51.4562 69.1668C51.3587 68.9608 51.2182 68.7755 51.043 68.6217L44.8322 62.7715ZM43.2439 56.9347C43.2439 57.8167 43.0594 58.6901 42.7009 59.505C42.3424 60.3199 41.817 61.0604 41.1546 61.6841C40.4922 62.3078 39.7058 62.8025 38.8404 63.1401C37.9749 63.4776 37.0473 63.6514 36.1106 63.6514C35.1738 63.6514 34.2462 63.4776 33.3808 63.1401C32.5153 62.8025 31.729 62.3078 31.0666 61.6841C30.4042 61.0604 29.8788 60.3199 29.5203 59.505C29.1618 58.6901 28.9773 57.8167 28.9773 56.9347C28.9773 55.1533 29.7288 53.4449 31.0666 52.1852C32.4043 50.9256 34.2187 50.218 36.1106 50.218C38.0025 50.218 39.8168 50.9256 41.1546 52.1852C42.4923 53.4449 43.2439 55.1533 43.2439 56.9347Z" fill="#1C1C1C"/>
</svg>
