<svg width="96" height="96" viewBox="0 0 96 96" fill="none" xmlns="http://www.w3.org/2000/svg">
<circle cx="48" cy="48" r="47.75" fill="#FEFEFE" stroke="#1C1C1C" stroke-width="0.5"/>
<path d="M46.3055 37.6781C44.1912 38.2564 42.9173 39.8805 42.9173 41.4119C42.9173 42.9434 44.1912 44.5675 46.3055 45.1435V37.6781ZM49.6937 48.9745V56.4376C51.808 55.8616 53.082 54.2375 53.082 52.7061C53.082 51.1746 51.808 49.5505 49.6937 48.9745Z" fill="#1C1C1C"/>
<path fill-rule="evenodd" clip-rule="evenodd" d="M70.5882 47.0588C70.5882 59.5343 60.4755 69.6471 48 69.6471C35.5245 69.6471 25.4118 59.5343 25.4118 47.0588C25.4118 34.5833 35.5245 24.4706 48 24.4706C60.4755 24.4706 70.5882 34.5833 70.5882 47.0588ZM48 31.8118C48.4493 31.8118 48.8802 31.9902 49.1979 32.308C49.5156 32.6257 49.6941 33.0566 49.6941 33.5059V34.2219C53.376 34.8815 56.4706 37.6486 56.4706 41.4118C56.4706 41.8611 56.2921 42.292 55.9744 42.6097C55.6567 42.9274 55.2258 43.1059 54.7765 43.1059C54.3272 43.1059 53.8963 42.9274 53.5785 42.6097C53.2608 42.292 53.0823 41.8611 53.0823 41.4118C53.0823 39.8803 51.8084 38.2562 49.6941 37.6779V45.516C53.376 46.1756 56.4706 48.9427 56.4706 52.7059C56.4706 56.4691 53.376 59.2361 49.6941 59.8957V60.6118C49.6941 61.0611 49.5156 61.492 49.1979 61.8097C48.8802 62.1274 48.4493 62.3059 48 62.3059C47.5507 62.3059 47.1198 62.1274 46.8021 61.8097C46.4844 61.492 46.3059 61.0611 46.3059 60.6118V59.8957C42.624 59.2361 39.5294 56.4691 39.5294 52.7059C39.5294 52.2566 39.7079 51.8257 40.0256 51.508C40.3433 51.1902 40.7742 51.0118 41.2235 51.0118C41.6728 51.0118 42.1037 51.1902 42.4214 51.508C42.7392 51.8257 42.9176 52.2566 42.9176 52.7059C42.9176 54.2374 44.1916 55.8615 46.3059 56.4375V48.6016C42.624 47.942 39.5294 45.175 39.5294 41.4118C39.5294 37.6486 42.624 34.8815 46.3059 34.2219V33.5059C46.3059 33.0566 46.4844 32.6257 46.8021 32.308C47.1198 31.9902 47.5507 31.8118 48 31.8118Z" fill="#1C1C1C"/>
</svg>
