<svg width="96" height="96" viewBox="0 0 96 96" fill="none" xmlns="http://www.w3.org/2000/svg">
<circle cx="48" cy="48" r="47.75" fill="#FEFEFE" stroke="#1C1C1C" stroke-width="0.5"/>
<path d="M29.1765 29.4706C29.1765 28.1445 29.6769 26.8727 30.5677 25.935C31.4585 24.9974 32.6667 24.4706 33.9265 24.4706H51.25C52.5098 24.4706 53.718 24.9974 54.6088 25.935C55.4996 26.8727 56 28.1445 56 29.4706V42.1176H60.1912C61.451 42.1176 62.6591 42.6444 63.5499 43.5821C64.4407 44.5198 64.9412 45.7916 64.9412 47.1176V70.0588C64.9412 70.8706 64.3153 71.5294 63.5441 71.5294H58.2353V63.5882C58.2353 62.8862 57.9704 62.2129 57.4988 61.7165C57.0272 61.2201 56.3875 60.9412 55.7206 60.9412H38.3971C37.7301 60.9412 37.0905 61.2201 36.6189 61.7165C36.1473 62.2129 35.8824 62.8862 35.8824 63.5882V71.5294H30.5735C29.8024 71.5294 29.1765 70.8706 29.1765 70.0588V29.4706ZM38.6765 71.5294H45.6618V63.8823H38.6765V71.5294ZM48.4559 71.5294H55.4412V63.8823H48.4559V71.5294ZM40.353 36.2353C40.353 35.6112 40.1174 35.0128 39.6983 34.5715C39.2791 34.1302 38.7105 33.8823 38.1177 33.8823C37.5248 33.8823 36.9563 34.1302 36.5371 34.5715C36.1179 35.0128 35.8824 35.6112 35.8824 36.2353C35.8824 36.8593 36.1179 37.4578 36.5371 37.8991C36.9563 38.3403 37.5248 38.5882 38.1177 38.5882C38.7105 38.5882 39.2791 38.3403 39.6983 37.8991C40.1174 37.4578 40.353 36.8593 40.353 36.2353ZM38.1177 46.8235C38.7105 46.8235 39.2791 46.5756 39.6983 46.1344C40.1174 45.6931 40.353 45.0946 40.353 44.4706C40.353 43.8465 40.1174 43.2481 39.6983 42.8068C39.2791 42.3655 38.7105 42.1176 38.1177 42.1176C37.5248 42.1176 36.9563 42.3655 36.5371 42.8068C36.1179 43.2481 35.8824 43.8465 35.8824 44.4706C35.8824 45.0946 36.1179 45.6931 36.5371 46.1344C36.9563 46.5756 37.5248 46.8235 38.1177 46.8235ZM40.353 52.7059C40.353 52.0818 40.1174 51.4834 39.6983 51.0421C39.2791 50.6008 38.7105 50.3529 38.1177 50.3529C37.5248 50.3529 36.9563 50.6008 36.5371 51.0421C36.1179 51.4834 35.8824 52.0818 35.8824 52.7059C35.8824 53.3299 36.1179 53.9284 36.5371 54.3697C36.9563 54.8109 37.5248 55.0588 38.1177 55.0588C38.7105 55.0588 39.2791 54.8109 39.6983 54.3697C40.1174 53.9284 40.353 53.3299 40.353 52.7059ZM47.0588 38.5882C47.6517 38.5882 48.2202 38.3403 48.6394 37.8991C49.0586 37.4578 49.2941 36.8593 49.2941 36.2353C49.2941 35.6112 49.0586 35.0128 48.6394 34.5715C48.2202 34.1302 47.6517 33.8823 47.0588 33.8823C46.466 33.8823 45.8974 34.1302 45.4782 34.5715C45.059 35.0128 44.8235 35.6112 44.8235 36.2353C44.8235 36.8593 45.059 37.4578 45.4782 37.8991C45.8974 38.3403 46.466 38.5882 47.0588 38.5882ZM49.2941 44.4706C49.2941 43.8465 49.0586 43.2481 48.6394 42.8068C48.2202 42.3655 47.6517 42.1176 47.0588 42.1176C46.466 42.1176 45.8974 42.3655 45.4782 42.8068C45.059 43.2481 44.8235 43.8465 44.8235 44.4706C44.8235 45.0946 45.059 45.6931 45.4782 46.1344C45.8974 46.5756 46.466 46.8235 47.0588 46.8235C47.6517 46.8235 48.2202 46.5756 48.6394 46.1344C49.0586 45.6931 49.2941 45.0946 49.2941 44.4706ZM47.0588 55.0588C47.6517 55.0588 48.2202 54.8109 48.6394 54.3697C49.0586 53.9284 49.2941 53.3299 49.2941 52.7059C49.2941 52.0818 49.0586 51.4834 48.6394 51.0421C48.2202 50.6008 47.6517 50.3529 47.0588 50.3529C46.466 50.3529 45.8974 50.6008 45.4782 51.0421C45.059 51.4834 44.8235 52.0818 44.8235 52.7059C44.8235 53.3299 45.059 53.9284 45.4782 54.3697C45.8974 54.8109 46.466 55.0588 47.0588 55.0588ZM58.2353 52.7059C58.2353 52.0818 57.9998 51.4834 57.5806 51.0421C57.1614 50.6008 56.5928 50.3529 56 50.3529C55.4072 50.3529 54.8386 50.6008 54.4194 51.0421C54.0002 51.4834 53.7647 52.0818 53.7647 52.7059C53.7647 53.3299 54.0002 53.9284 54.4194 54.3697C54.8386 54.8109 55.4072 55.0588 56 55.0588C56.5928 55.0588 57.1614 54.8109 57.5806 54.3697C57.9998 53.9284 58.2353 53.3299 58.2353 52.7059Z" fill="#1C1C1C"/>
</svg>
