<svg width="96" height="96" viewBox="0 0 96 96" fill="none" xmlns="http://www.w3.org/2000/svg">
<circle cx="48" cy="48" r="47.75" fill="#FEFEFE" stroke="#1C1C1C" stroke-width="0.5"/>
<path d="M25.1765 48C22.502 48 20.3137 45.8118 20.3137 43.1373V30.9804C20.3137 28.3059 22.502 26.1177 25.1765 26.1177H44.6274C47.302 26.1177 49.4902 28.3059 49.4902 30.9804V43.1373C49.4902 45.8118 47.302 48 44.6274 48H39.7647V55.2941L32.4706 48H25.1765ZM68.9412 62.5883C71.6157 62.5883 73.8039 60.4 73.8039 57.7255V45.5687C73.8039 42.8941 71.6157 40.7059 68.9412 40.7059H54.3529V43.1373C54.3529 48.4863 49.9765 52.8628 44.6274 52.8628V57.7255C44.6274 60.4 46.8157 62.5883 49.4902 62.5883H54.3529V69.8824L61.6471 62.5883H68.9412Z" fill="#1C1C1C"/>
</svg>
