<svg width="96" height="96" viewBox="0 0 96 96" fill="none" xmlns="http://www.w3.org/2000/svg">
<circle cx="48" cy="48" r="47.75" fill="#FEFEFE" stroke="#1C1C1C" stroke-width="0.5"/>
<path d="M25.4118 67.8776V63.2794C25.4118 63.2794 36.7059 58.6811 48 58.6811C59.2941 58.6811 70.5882 63.2794 70.5882 63.2794V67.8776H25.4118ZM46.4188 38.2187C43.7082 29.2521 29.9294 31.3213 29.9294 31.3213C29.9294 31.3213 30.3812 49.2546 43.2565 46.4956C42.3529 39.8281 38.9647 37.9888 38.9647 37.9888C45.2894 37.9888 45.7412 45.8059 45.7412 45.8059V56.3819H50.2588V46.7255C50.2588 46.7255 50.2588 37.7589 57.0353 35.4598C57.0353 35.4598 52.5176 42.3572 52.5176 46.9555C68.3294 48.5649 68.3294 26.4931 68.3294 26.4931C68.3294 26.4931 48.2259 24.194 46.4188 38.2187Z" fill="#1C1C1C"/>
</svg>
