<svg width="96" height="96" viewBox="0 0 96 96" fill="none" xmlns="http://www.w3.org/2000/svg">
<circle cx="48" cy="48" r="47.75" fill="#FEFEFE" stroke="#1C1C1C" stroke-width="0.5"/>
<path d="M46.1179 44.3212C49.8293 44.3212 52.8379 41.508 52.8379 38.0377C52.8379 34.5674 49.8293 31.7542 46.1179 31.7542C42.4066 31.7542 39.3979 34.5674 39.3979 38.0377C39.3979 41.508 42.4066 44.3212 46.1179 44.3212Z" fill="#1C1C1C"/>
<path d="M35.9247 38.6659H36.6023V38.091C36.6064 36.4193 37.1044 34.7821 38.04 33.3645C38.9756 31.9469 40.3115 30.8055 41.8964 30.0695C41.4272 29.0461 40.6741 28.1623 39.717 27.5117C38.7599 26.8612 37.6347 26.4683 36.4607 26.3747C35.2868 26.2811 34.108 26.4904 33.0496 26.9803C31.9911 27.4703 31.0926 28.2225 30.4494 29.1572C29.8061 30.0918 29.4422 31.174 29.3963 32.2888C29.3504 33.4036 29.6242 34.5094 30.1886 35.4886C30.753 36.4679 31.587 37.2841 32.6019 37.8506C33.6168 38.4171 34.7748 38.7127 35.9529 38.706L35.9247 38.6659ZM55.6611 38.0375V38.6124H56.3388C57.5011 38.6014 58.6389 38.2938 59.6322 37.722C60.6256 37.1502 61.4378 36.3355 61.9834 35.3634C62.5289 34.3914 62.7877 33.298 62.7324 32.1985C62.6772 31.0989 62.3099 30.0338 61.6693 29.1152C61.0286 28.1966 60.1384 27.4586 59.0922 26.9788C58.046 26.499 56.8825 26.2951 55.7243 26.3887C54.5661 26.4822 53.4559 26.8698 52.5106 27.5104C51.5653 28.1511 50.8199 29.0213 50.3529 30.0294C51.9383 30.7625 53.2756 31.901 54.2137 33.3162C55.1517 34.7313 55.6531 36.3667 55.6611 38.0375ZM52.1741 44.9494C54.981 45.4756 57.6951 46.3758 60.2352 47.6233C60.5931 47.8094 60.9172 48.0486 61.1952 48.3318H68.7058V43.7596C68.7072 43.5842 68.6579 43.4118 68.5634 43.261C68.4688 43.1102 68.3326 42.9867 68.1693 42.9039C64.5103 41.0915 60.4399 40.1508 56.3105 40.1632H55.3788C54.8895 42.0466 53.7642 43.7271 52.1741 44.9494ZM29.9247 50.9255C29.9221 50.2522 30.1141 49.591 30.4799 49.0136C30.8457 48.4363 31.3714 47.9647 32 47.65C34.5401 46.4025 37.2542 45.5023 40.0611 44.9762C38.4786 43.7643 37.3541 42.0989 36.8564 40.2301H35.9247C31.7953 40.2176 27.7249 41.1583 24.0659 42.9708C23.9026 43.0536 23.7664 43.1771 23.6718 43.3279C23.5773 43.4786 23.528 43.651 23.5294 43.8264V52.3693H29.9247V50.9255ZM51.0023 58.6395H59.4164V60.5112H51.0023V58.6395Z" fill="#1C1C1C"/>
<path d="M67.0257 51.38H57.3269V50.043C57.3269 49.6885 57.1782 49.3484 56.9134 49.0977C56.6487 48.847 56.2896 48.7061 55.9152 48.7061C55.5407 48.7061 55.1817 48.847 54.9169 49.0977C54.6521 49.3484 54.5034 49.6885 54.5034 50.043V51.38H51.7646V47.5965C49.9072 47.2271 48.0154 47.0345 46.1175 47.0216C41.6617 47.004 37.2695 48.0232 33.327 49.9896C33.1514 50.0758 33.0044 50.2064 32.9022 50.3668C32.8001 50.5273 32.7467 50.7113 32.7481 50.8987V58.3988H42.7858V66.5407C42.7858 66.8952 42.9345 67.2353 43.1993 67.486C43.464 67.7367 43.8231 67.8776 44.1975 67.8776H67.0257C67.4002 67.8776 67.7592 67.7367 68.024 67.486C68.2888 67.2353 68.4375 66.8952 68.4375 66.5407V52.7169C68.4375 52.3623 68.2888 52.0223 68.024 51.7715C67.7592 51.5208 67.4002 51.38 67.0257 51.38ZM65.614 65.2305H45.6093V54.0538H54.5034V55.2704C54.5034 55.625 54.6521 55.965 54.9169 56.2158C55.1817 56.4665 55.5407 56.6073 55.9152 56.6073C56.2896 56.6073 56.6487 56.4665 56.9134 56.2158C57.1782 55.965 57.3269 55.625 57.3269 55.2704V54.0538H65.614V65.2305Z" fill="#1C1C1C"/>
</svg>
