<svg width="96" height="96" viewBox="0 0 96 96" fill="none" xmlns="http://www.w3.org/2000/svg">
<circle cx="48" cy="48" r="47.75" fill="#FEFEFE" stroke="#1C1C1C" stroke-width="0.5"/>
<g clip-path="url(#clip0_115_888)">
<path d="M32 44C32.5398 44.0006 33.0589 44.2073 33.4514 44.5778C33.8439 44.9483 34.08 45.4547 34.1117 45.9935C34.1433 46.5323 33.968 47.0629 33.6216 47.4768C33.2751 47.8907 32.7837 48.1567 32.2478 48.2205L32 48.2353H29.8824C29.3426 48.2347 28.8235 48.028 28.431 47.6575C28.0385 47.287 27.8023 46.7806 27.7707 46.2417C27.7391 45.7029 27.9144 45.1724 28.2608 44.7585C28.6072 44.3446 29.0986 44.0786 29.6346 44.0148L29.8824 44H32ZM48.9412 24.9412C49.4599 24.9412 49.9605 25.1317 50.3481 25.4763C50.7357 25.821 50.9833 26.2959 51.044 26.811L51.0588 27.0588V29.1765C51.0582 29.7162 50.8516 30.2353 50.481 30.6278C50.1105 31.0203 49.6041 31.2565 49.0653 31.2881C48.5265 31.3197 47.9959 31.1444 47.582 30.798C47.1681 30.4516 46.9021 29.9602 46.8384 29.4242L46.8235 29.1765V27.0588C46.8235 26.4972 47.0466 25.9585 47.4438 25.5614C47.8409 25.1643 48.3795 24.9412 48.9412 24.9412ZM68 44C68.5397 44.0006 69.0589 44.2073 69.4514 44.5778C69.8438 44.9483 70.08 45.4547 70.1117 45.9935C70.1433 46.5323 69.968 47.0629 69.6216 47.4768C69.2751 47.8907 68.7837 48.1567 68.2478 48.2205L68 48.2353H65.8824C65.3426 48.2347 64.8235 48.028 64.431 47.6575C64.0385 47.287 63.8023 46.7806 63.7707 46.2417C63.7391 45.7029 63.9144 45.1724 64.2608 44.7585C64.6072 44.3446 65.0986 44.0786 65.6346 44.0148L65.8824 44H68ZM33.8911 31.0675C34.2557 30.7029 34.7409 30.4839 35.2555 30.4515C35.7701 30.4192 36.2789 30.5757 36.6864 30.8917L36.8854 31.0675L38.3678 32.5499C38.7476 32.931 38.9681 33.4423 38.9845 33.9801C39.0009 34.5179 38.812 35.0417 38.4562 35.4453C38.1004 35.8488 37.6043 36.1018 37.0686 36.1528C36.533 36.2039 35.9981 36.0491 35.5725 35.72L35.3734 35.5442L33.8911 34.0619C33.4941 33.6648 33.271 33.1262 33.271 32.5647C33.271 32.0032 33.4941 31.4646 33.8911 31.0675ZM60.9969 31.0675C61.378 30.6877 61.8894 30.4672 62.4272 30.4508C62.9649 30.4344 63.4888 30.6233 63.8924 30.9791C64.2959 31.3349 64.5489 31.831 64.5999 32.3666C64.6509 32.9022 64.4962 33.4372 64.1671 33.8628L63.9913 34.0619L62.5089 35.5442C62.1279 35.924 61.6165 36.1445 61.0787 36.1609C60.5409 36.1774 60.0171 35.9885 59.6135 35.6326C59.21 35.2768 58.957 34.7807 58.906 34.2451C58.855 33.7095 59.0097 33.1746 59.3388 32.7489L59.5146 32.5499L60.9969 31.0675ZM53.1765 58.8235C53.7381 58.8235 54.2767 59.0466 54.6739 59.4438C55.071 59.8409 55.2941 60.3795 55.2941 60.9412C55.2941 62.6261 54.6248 64.242 53.4334 65.4334C52.242 66.6248 50.6261 67.2941 48.9412 67.2941C47.2563 67.2941 45.6404 66.6248 44.449 65.4334C43.2576 64.242 42.5882 62.6261 42.5882 60.9412C42.5883 60.4225 42.7787 59.9219 43.1234 59.5343C43.4681 59.1467 43.943 58.899 44.4581 58.8383L44.7059 58.8235H53.1765ZM48.9412 33.4117C51.6079 33.4117 54.2071 34.2508 56.3704 35.8101C58.5338 37.3694 60.1517 39.5698 60.995 42.0997C61.8383 44.6296 61.8643 47.3607 61.0691 49.9061C60.274 52.4516 58.6981 54.6823 56.5647 56.2823C56.2728 56.5016 55.9293 56.6416 55.5673 56.6889L55.2941 56.7059H42.5882C42.13 56.7059 41.6842 56.5573 41.3177 56.2823C39.1843 54.6823 37.6084 52.4516 36.8132 49.9061C36.0181 47.3607 36.044 44.6296 36.8873 42.0997C37.7306 39.5698 39.3485 37.3694 41.5119 35.8101C43.6753 34.2508 46.2744 33.4117 48.9412 33.4117Z" fill="#1C1C1C"/>
</g>
<defs>
<clipPath id="clip0_115_888">
<rect width="50.8235" height="50.8235" fill="white" transform="translate(23.5294 20.7059)"/>
</clipPath>
</defs>
</svg>
