<svg width="96" height="96" viewBox="0 0 96 96" fill="none" xmlns="http://www.w3.org/2000/svg">
<circle cx="48" cy="48" r="47.75" fill="#FEFEFE" stroke="#1C1C1C" stroke-width="0.5"/>
<path d="M25.8765 24.4706L25.742 39.0061L27.0506 40.0649L25.7175 41.2627L25.6808 44.7814L28.5793 46.9631L25.6564 48.1931L25.4118 73.4118L28.8239 73.3904L30.4137 70.3423C30.4137 70.3423 33.2999 72.631 33.3488 72.4706C33.3855 72.3102 43.3772 71.4653 43.3772 71.4653L44.4779 73.2834L70.5882 73.0802L70.576 61.7115L67.7754 59.7115L70.5638 58.6099L70.5271 28.3507L66.3323 24.5711L32.5172 24.4888L31.3309 27.3122L29.9857 24.4823L25.8765 24.4706ZM49.6388 25.401C49.9172 25.3969 50.226 25.5101 50.5177 25.7232C50.8094 25.9364 51.0678 26.2376 51.2531 26.5807C51.3641 26.7865 51.4458 27.0019 51.4936 27.2144C51.5413 27.427 51.5542 27.6326 51.5315 27.8194C51.5088 28.0063 51.4509 28.1707 51.3611 28.3034C51.2714 28.436 51.1516 28.5342 51.0085 28.5924C50.829 28.6659 50.6178 28.6742 50.3937 28.6165C50.1696 28.5589 49.9397 28.437 49.7244 28.2619L46.936 29.1796L46.3123 28.5903L48.8439 26.8352C48.7731 26.518 48.7805 26.2188 48.8654 25.975C48.9502 25.7312 49.1086 25.5535 49.3208 25.4641C49.418 25.4239 49.525 25.4027 49.6388 25.401ZM29.1296 31.5635H30.5972L31.6245 35.8083L32.6395 31.5635H34.1193L35.1466 35.8083L36.1739 31.5635H37.6292L36.2228 37.4018H34.4617L33.3733 32.9634L32.3093 37.4018H30.5482L29.1296 31.5635ZM39.7572 31.5635H41.5917L43.793 37.4018H42.2521L41.8729 36.343H39.4759L39.0968 37.4018H37.5559L39.7572 31.5635ZM44.5757 31.5635H46.2879L48.4403 35.5623V31.5635H49.8956V37.4018H48.1835L46.0188 33.3912V37.4018H44.5757V31.5635ZM50.6905 31.5635H56.1694V32.6961H54.2005V37.4018H52.6718V32.6961H50.6905V31.5635ZM56.9644 31.5635H61.098V32.6961H58.4931V33.787H60.939V34.9206H58.4931V36.2682H61.1836V37.4018H56.9644V31.5635ZM62.5289 31.5635H64.1432C65.0482 31.5635 65.7208 31.6266 66.1611 31.7549C66.6014 31.88 66.9805 32.0939 67.2985 32.3966C67.5797 32.6533 67.7876 32.9634 67.9222 33.3057C68.0567 33.6479 68.1301 34.0436 68.1301 34.4714C68.1301 34.9206 68.0567 35.3056 67.9222 35.6586C67.7876 36.0008 67.5797 36.3003 67.2985 36.5676C66.9805 36.8671 66.6014 37.081 66.1489 37.2093C65.7086 37.3377 65.036 37.4018 64.1432 37.4018H62.5289V31.5635ZM64.0698 32.6961V36.2682H64.6079C65.2439 36.2682 65.7208 36.1078 66.051 35.8083C66.3812 35.4981 66.5402 35.0597 66.5402 34.4714C66.5402 33.8939 66.3812 33.4554 66.051 33.156C65.7208 32.8565 65.2439 32.6961 64.6079 32.6961H64.0698ZM40.6744 32.9314L39.855 35.2522H41.4816L40.6744 32.9314ZM63.2015 39.3911L63.1404 61.3906L32.3705 61.3372L32.7863 40.5141L32.8107 39.5836L63.2015 39.3911ZM61.0002 41.3376L34.9632 41.4873L34.6207 59.4121L39.6349 59.4228C40.1852 57.765 41.0413 56.0325 44.9915 55.4763C44.5446 54.9887 44.1873 54.3919 43.9429 53.7247C43.6984 53.0576 43.5723 52.3352 43.5729 51.6047C43.577 51.343 43.5975 51.082 43.634 50.824L37.5559 50.8668L37.5314 48.9417L43.3527 48.8989C43.9642 47.4444 43.9398 45.8188 43.952 44.1397C47.0706 44.8348 48.9662 44.7921 51.3387 44.1397C51.3143 45.7225 51.3999 47.2091 52.1214 48.8241L57.8571 48.7813L57.8816 50.7064L52.048 50.7492C52.0878 51.0318 52.1082 51.318 52.1092 51.6047C52.1086 52.347 51.9773 53.0804 51.7241 53.7556C51.471 54.4308 51.1018 55.0322 50.6416 55.5191C53.8091 56.0966 55.5946 57.7116 56.1205 59.4548L60.939 59.4655L61.0002 41.3376ZM35.3912 63.5617L60.621 63.6473V65.5724L35.3912 65.4868V63.5617ZM49.1741 67.8183L60.6333 67.9039L60.6088 69.8289L49.1496 69.7434L49.1741 67.8183Z" fill="#1C1C1C"/>
</svg>
